<svg width="15" height="14" viewBox="0 0 15 14" fill="none" xmlns="http://www.w3.org/2000/svg">
<path d="M1 1.25V0.5C0.585786 0.5 0.25 0.835786 0.25 1.25L1 1.25ZM1 12.75H0.25C0.25 13.1642 0.585786 13.5 1 13.5L1 12.75ZM12.413 12.75V13.5C12.8273 13.5 13.163 13.1642 13.163 12.75H12.413ZM13.163 8.91667C13.163 8.50245 12.8273 8.16667 12.413 8.16667C11.9988 8.16667 11.663 8.50245 11.663 8.91667H13.163ZM9.15217 0.5H1V2H9.15217V0.5ZM0.25 1.25V12.75H1.75V1.25H0.25ZM1 13.5H12.413V12H1V13.5ZM13.163 12.75V8.91667H11.663V12.75H13.163Z" fill="#34685B"/>
<path d="M6.97813 9.46426L6.44579 9.99258C6.59027 10.1382 6.78806 10.2182 6.99312 10.2141C7.19818 10.21 7.39261 10.1221 7.53116 9.97088L6.97813 9.46426ZM14.0529 2.85184C14.3327 2.54641 14.3119 2.07199 14.0065 1.79219C13.7011 1.51239 13.2266 1.53317 12.9468 1.83859L14.0529 2.85184ZM3.7284 7.25448L6.44579 9.99258L7.51047 8.93595L4.79308 6.19785L3.7284 7.25448ZM7.53116 9.97088L14.0529 2.85184L12.9468 1.83859L6.42511 8.95764L7.53116 9.97088Z" fill="#34685B"/>
</svg>
